<?xml version="1.0" standalone="no"?><!DOCTYPE svg PUBLIC "-//W3C//DTD SVG 1.1//EN" "http://www.w3.org/Graphics/SVG/1.1/DTD/svg11.dtd"><svg xmlns:xlink="http://www.w3.org/1999/xlink" version="1.1" style="font-family:'lucida grande', 'lucida sans unicode', arial, helvetica, sans-serif;font-size:12px;" xmlns="http://www.w3.org/2000/svg" width="600" height="600"><desc>Created with Highcharts 4.1.5</desc><defs><clipPath id="highcharts-9"><rect x="0" y="0" width="580" height="410"></rect></clipPath></defs><rect x="0" y="0" width="600" height="600" strokeWidth="0" fill="#FFFFFF" class=" highcharts-background"></rect><g class="highcharts-series-group" ><g class="highcharts-series" visibility="visible"  transform="translate(10,47) scale(1 1)"><path fill="#7cb5ec" d="M 367.97963267963047 105.00000207413872 A 100 100 0 0 1 462.2420707114493 238.4429679905685 L 368 205 A 0 0 0 0 0 368 205 Z" stroke="#FFFFFF" stroke-width="1" stroke-linejoin="round" transform="translate(0,0)"></path><path fill="#434348" d="M 462.20858062800113 238.5371933240903 A 100 100 0 0 1 325.20677937681774 295.381083577791 L 368 205 A 0 0 0 0 0 368 205 Z" stroke="#FFFFFF" stroke-width="1" stroke-linejoin="round" transform="translate(0,0)"></path><path fill="#90ed7d" d="M 325.116419704912 295.338245173762 A 100 100 0 0 1 278.5995845136303 249.80586692459448 L 368 205 A 0 0 0 0 0 368 205 Z" stroke="#FFFFFF" stroke-width="1" stroke-linejoin="round" transform="translate(0,0)"></path><path fill="#f7a35c" d="M 278.5548233543774 249.7164441210766 A 100 100 0 0 1 268.0776368996607 201.06028523317264 L 368 205 A 0 0 0 0 0 368 205 Z" stroke="#FFFFFF" stroke-width="1" stroke-linejoin="round" transform="translate(0,0)"></path><path fill="#8085e9" d="M 268.08162657494836 200.96036485658325 A 100 100 0 0 1 277.6276341291788 162.1883720595627 L 368 205 A 0 0 0 0 0 368 205 Z" stroke="#FFFFFF" stroke-width="1" stroke-linejoin="round" transform="translate(0,0)"></path><path fill="#f15c80" d="M 277.6704909361631 162.09802111456617 A 100 100 0 0 1 293.1107699907048 138.73082746393402 L 368 205 A 0 0 0 0 0 368 205 Z" stroke="#FFFFFF" stroke-width="1" stroke-linejoin="round" transform="translate(0,0)"></path><path fill="#e4d354" d="M 293.17707659680786 138.6559713809898 A 100 100 0 0 1 311.09180295953047 122.77192018779049 L 368 205 A 0 0 0 0 0 368 205 Z" stroke="#FFFFFF" stroke-width="1" stroke-linejoin="round" transform="translate(0,0)"></path><path fill="#2b908f" d="M 311.1740594797342 122.71505311427117 A 100 100 0 0 1 319.67273987269925 117.45300731271115 L 368 205 A 0 0 0 0 0 368 205 Z" stroke="#FFFFFF" stroke-width="1" stroke-linejoin="round" transform="translate(0,0)"></path><path fill="#f45b5b" d="M 319.76031101442345 117.40472383413108 A 100 100 0 0 1 328.746244229396 113.02640238687098 L 368 205 A 0 0 0 0 0 368 205 Z" stroke="#FFFFFF" stroke-width="1" stroke-linejoin="round" transform="translate(0,0)"></path><path fill="#91e8e1" d="M 328.83823743855646 112.98719462443763 A 100 100 0 0 1 336.2218311755727 110.18360908489402 L 368 205 A 0 0 0 0 0 368 205 Z" stroke="#FFFFFF" stroke-width="1" stroke-linejoin="round" transform="translate(0,0)"></path><path fill="#7cb5ec" d="M 336.31666343976815 110.15187832955743 A 100 100 0 0 1 343.99775467224504 107.92326633417117 L 368 205 A 0 0 0 0 0 368 205 Z" stroke="#FFFFFF" stroke-width="1" stroke-linejoin="round" transform="translate(0,0)"></path><path fill="#434348" d="M 344.0948433908531 107.89931263120657 A 100 100 0 0 1 349.8620556407188 106.65868124526895 L 368 205 A 0 0 0 0 0 368 205 Z" stroke="#FFFFFF" stroke-width="1" stroke-linejoin="round" transform="translate(0,0)"></path><path fill="#90ed7d" d="M 349.96040601205476 106.64059247458792 A 100 100 0 0 1 353.8091679216326 106.01201949264963 L 368 205 A 0 0 0 0 0 368 205 Z" stroke="#FFFFFF" stroke-width="1" stroke-linejoin="round" transform="translate(0,0)"></path><path fill="#f7a35c" d="M 353.9081629810574 105.99787815692251 A 100 100 0 0 1 357.8784638831921 105.51354611487977 L 368 205 A 0 0 0 0 0 368 205 Z" stroke="#FFFFFF" stroke-width="1" stroke-linejoin="round" transform="translate(0,0)"></path><path fill="#8085e9" d="M 357.9779553812639 105.50347432367268 A 100 100 0 0 1 361.8649570839679 105.18837117640828 L 368 205 A 0 0 0 0 0 368 205 Z" stroke="#FFFFFF" stroke-width="1" stroke-linejoin="round" transform="translate(0,0)"></path><path fill="#f15c80" d="M 361.96477176367745 105.18228604032501 A 100 100 0 0 1 363.862283548613 105.085640158344 L 368 205 A 0 0 0 0 0 368 205 Z" stroke="#FFFFFF" stroke-width="1" stroke-linejoin="round" transform="translate(0,0)"></path><path fill="#e4d354" d="M 363.96219996066037 105.081552399758 A 100 100 0 0 1 365.86126504466995 105.02287355204267 L 368 205 A 0 0 0 0 0 368 205 Z" stroke="#FFFFFF" stroke-width="1" stroke-linejoin="round" transform="translate(0,0)"></path><path fill="#2b908f" d="M 365.96124322382246 105.02078480600285 A 100 100 0 0 1 367.8611020061928 105.00009646330994 L 368 205 A 0 0 0 0 0 368 205 Z" stroke="#FFFFFF" stroke-width="1" stroke-linejoin="round" transform="translate(0,0)"></path></g><g class="highcharts-markers" visibility="visible"  transform="translate(10,47) scale(1 1)"></g></g><text x="300" text-anchor="middle" class="highcharts-title"  style="color:#333333;font-size:18px;fill:#333333;width:536px;" y="24"><tspan>Struktura smrtnih žrtev druge svetovne vojne na Žirovskem</tspan></text><g class="highcharts-data-labels" visibility="visible"  transform="translate(10,47) scale(1 1)" opacity="1"><path fill="none" d="M 479.2388964679971 130.0780614421771 C 474.2388964679971 130.0780614421771 467.7011182238126 134.68864227650468 458.71167313805904 141.02819092370507 L 449.72222805230547 147.36773957090546" stroke="#7cb5ec" stroke-width="1" visibility="inherit"></path><path fill="none" d="M 422.74884620746167 325.1043392264673 C 417.74884620746167 325.1043392264673 414.687378748541 317.713302966377 410.477860992525 307.55062810875285 L 406.268343236509 297.3879532511287" stroke="#434348" stroke-width="1" visibility="inherit"></path><path fill="none" d="M 343.3086313324848 333.5 C 348.3086313324848 333.5 282.605971815363 292.13127997683387 290.3054333729942 284.2751809625292 L 298.00489493062537 276.4190819482245" stroke="#90ed7d" stroke-width="1" visibility="inherit"></path><path fill="none" d="M 286.3514514162205 310 C 291.3514514162205 310 248.7173162027567 230.60549445191145 259.472312282836 228.29680232919813 L 270.2273083629153 225.9881102064848" stroke="#f7a35c" stroke-width="1" visibility="inherit"></path><path fill="none" d="M 261.71944905363125 286.5 C 266.71944905363125 286.5 249.5450982740216 175.80348895691796 260.2254582657082 178.4359612640811 L 270.9058182573948 181.06843357124424" stroke="#8085e9" stroke-width="1" visibility="inherit"></path><path fill="none" d="M 246.6556834220081 263 C 251.6556834220081 263 266.2207510806909 137.73199505395368 275.39756860620236 143.79714304089228 L 284.5743861317138 149.86229102783088" stroke="#f15c80" stroke-width="1" visibility="inherit"></path><path fill="none" d="M 237.6614584415472 239.5 C 242.6614584415472 239.5 287.09903569462296 113.68168872312575 294.3933849352717 121.91530695300786 L 301.6877341759204 130.14892518288997" stroke="#e4d354" stroke-width="1" visibility="inherit"></path><path fill="none" d="M 233.46622062180074 216 C 238.46622062180074 216 303.8367252458314 101.23548692919589 309.62193854333844 110.5913036814815 L 315.4071518408455 119.94712043376713" stroke="#2b908f" stroke-width="1" visibility="inherit"></path><path fill="none" d="M 233.60235705392466 192.5 C 238.60235705392466 192.5 314.59233996982834 95.31125012061808 319.4077847266471 105.20121937203777 L 324.22322948346584 115.09118862345746" stroke="#f45b5b" stroke-width="1" visibility="inherit"></path><path fill="none" d="M 238.08402824298247 169 C 243.08402824298247 169 324.7382037808104 90.92801839237947 328.63885753827833 101.21319706191903 L 332.53951129574625 111.4983757314586" stroke="#91e8e1" stroke-width="1" visibility="inherit"></path><path fill="none" d="M 247.41561524150418 145.5 C 252.41561524150418 145.5 334.0574694021926 87.81679038097263 337.1178615052736 98.38248960891772 L 340.17825360835457 108.94818883686281" stroke="#7cb5ec" stroke-width="1" visibility="inherit"></path><path fill="none" d="M 262.94501511668693 122 C 267.94501511668693 122 342.3945055480883 85.71731620275673 344.70319767080167 96.47231228283604 L 347.011889793515 107.22730836291535" stroke="#434348" stroke-width="1" visibility="inherit"></path><path fill="none" d="M 288.4496814225452 98.5 C 293.4496814225452 98.5 353.29452500885026 83.88951736003744 354.62042849165886 94.80931497511604 L 355.94633197446745 105.72911259019463" stroke="#f7a35c" stroke-width="1" visibility="inherit"></path><path fill="none" d="M 352.5393460668254 75 C 357.5393460668254 75 358.18307861655916 83.39560840762641 359.06821087244316 94.35993879710271 L 359.95334312832716 105.32426918657902" stroke="#8085e9" stroke-width="1" visibility="inherit"></path><g  style="cursor:pointer;" transform="translate(484,120)" visibility="inherit"><text x="5"  style="font-size: 11px; font-weight: bold; color: rgb(0, 0, 0); fill: rgb(0, 0, 0); text-shadow: rgb(255, 255, 255) 0px 0px 6px, rgb(255, 255, 255) 0px 0px 3px;" transform="translate(0,16)"><tspan>povojni poboji</tspan></text></g><g  style="cursor:pointer;" transform="translate(428,315)" visibility="inherit"><text x="5"  style="font-size: 11px; font-weight: bold; color: rgb(0, 0, 0); fill: rgb(0, 0, 0); text-shadow: rgb(255, 255, 255) 0px 0px 6px, rgb(255, 255, 255) 0px 0px 3px;" transform="translate(0,16)"><tspan>smrt v partizanski vojski</tspan></text></g><g  style="cursor:pointer;" transform="translate(275,324)" visibility="inherit"><text x="5"  style="font-size: 11px; font-weight: bold; color: rgb(0, 0, 0); fill: rgb(0, 0, 0); text-shadow: rgb(255, 255, 255) 0px 0px 6px, rgb(255, 255, 255) 0px 0px 3px;" transform="translate(0,16)"><tspan>ubila NOV</tspan></text></g><g  style="cursor:pointer;" transform="translate(157,300)" visibility="inherit"><text x="5"  style="font-size: 11px; font-weight: bold; color: rgb(0, 0, 0); fill: rgb(0, 0, 0); text-shadow: rgb(255, 255, 255) 0px 0px 6px, rgb(255, 255, 255) 0px 0px 3px;" transform="translate(0,16)"><tspan>smrt v nemški vojski</tspan></text></g><g  style="cursor:pointer;" transform="translate(162,277)" visibility="inherit"><text x="5"  style="font-size: 11px; font-weight: bold; color: rgb(0, 0, 0); fill: rgb(0, 0, 0); text-shadow: rgb(255, 255, 255) 0px 0px 6px, rgb(255, 255, 255) 0px 0px 3px;" transform="translate(0,16)"><tspan>eksplozija mine</tspan></text></g><g  style="cursor:pointer;" transform="translate(153,253)" visibility="inherit"><text x="5"  style="font-size: 11px; font-weight: bold; color: rgb(0, 0, 0); fill: rgb(0, 0, 0); text-shadow: rgb(255, 255, 255) 0px 0px 6px, rgb(255, 255, 255) 0px 0px 3px;" transform="translate(0,16)"><tspan>ustrelili Nemci</tspan></text></g><g  style="cursor:pointer;" transform="translate(133,230)" visibility="inherit"><text x="5"  style="font-size: 11px; font-weight: bold; color: rgb(0, 0, 0); fill: rgb(0, 0, 0); text-shadow: rgb(255, 255, 255) 0px 0px 6px, rgb(255, 255, 255) 0px 0px 3px;" transform="translate(0,16)"><tspan>smrt v taborišču</tspan></text></g><g  style="cursor:pointer;" transform="translate(6,206)" visibility="inherit"><text x="5"  style="font-size: 11px; font-weight: bold; color: rgb(0, 0, 0); fill: rgb(0, 0, 0); text-shadow: rgb(255, 255, 255) 0px 0px 6px, rgb(255, 255, 255) 0px 0px 3px;" transform="translate(0,16)"><tspan>smrt v internaciji ali na prisilnem delu</tspan></text></g><g  style="cursor:pointer;" transform="translate(139,183)" visibility="inherit"><text x="5"  style="font-size: 11px; font-weight: bold; color: rgb(0, 0, 0); fill: rgb(0, 0, 0); text-shadow: rgb(255, 255, 255) 0px 0px 6px, rgb(255, 255, 255) 0px 0px 3px;" transform="translate(0,16)"><tspan>bombardiranje</tspan></text></g><g  style="cursor:pointer;" transform="translate(89,159)" visibility="inherit"><text x="5"  style="font-size: 11px; font-weight: bold; color: rgb(0, 0, 0); fill: rgb(0, 0, 0); text-shadow: rgb(255, 255, 255) 0px 0px 6px, rgb(255, 255, 255) 0px 0px 3px;" transform="translate(0,16)"><tspan>kot talca ustrelili četniki</tspan></text></g><g  style="cursor:pointer;" transform="translate(84,136)" visibility="inherit"><text x="5"  style="font-size: 11px; font-weight: bold; color: rgb(0, 0, 0); fill: rgb(0, 0, 0); text-shadow: rgb(255, 255, 255) 0px 0px 6px, rgb(255, 255, 255) 0px 0px 3px;" transform="translate(0,16)"><tspan>smrt v domobranski vojski</tspan></text></g><g  style="cursor:pointer;" transform="translate(208,112)" visibility="inherit"><text x="5"  style="font-size: 11px; font-weight: bold; color: rgb(0, 0, 0); fill: rgb(0, 0, 0); text-shadow: rgb(255, 255, 255) 0px 0px 6px, rgb(255, 255, 255) 0px 0px 3px;" transform="translate(0,16)"><tspan>nejasno</tspan></text></g><g  style="cursor:pointer;" transform="translate(0,-999)"><text x="5"  style="font-size: 11px; font-weight: bold; color: rgb(0, 0, 0); fill: rgb(0, 0, 0); text-shadow: rgb(255, 255, 255) 0px 0px 6px, rgb(255, 255, 255) 0px 0px 3px;" transform="translate(0,16)"><tspan>ustrelili domobranci</tspan></text></g><g  style="cursor:pointer;" transform="translate(112,89)" visibility="inherit"><text x="5"  style="font-size: 11px; font-weight: bold; color: rgb(0, 0, 0); fill: rgb(0, 0, 0); text-shadow: rgb(255, 255, 255) 0px 0px 6px, rgb(255, 255, 255) 0px 0px 3px;" transform="translate(0,16)"><tspan>umrl kot jugoslovanski vojak</tspan></text></g><g  style="cursor:pointer;" transform="translate(252,65)" visibility="inherit"><text x="5"  style="font-size: 11px; font-weight: bold; color: rgb(0, 0, 0); fill: rgb(0, 0, 0); text-shadow: rgb(255, 255, 255) 0px 0px 6px, rgb(255, 255, 255) 0px 0px 3px;" transform="translate(0,16)"><tspan>ustrelili Italijani</tspan></text></g><g  style="cursor:pointer;" transform="translate(0,-999)"><text x="5"  style="font-size: 11px; font-weight: bold; color: rgb(0, 0, 0); fill: rgb(0, 0, 0); text-shadow: rgb(255, 255, 255) 0px 0px 6px, rgb(255, 255, 255) 0px 0px 3px;" transform="translate(0,16)"><tspan>eksplozija granate</tspan></text></g><g  style="cursor:pointer;" transform="translate(0,-999)"><text x="5"  style="font-size: 11px; font-weight: bold; color: rgb(0, 0, 0); fill: rgb(0, 0, 0); text-shadow: rgb(255, 255, 255) 0px 0px 6px, rgb(255, 255, 255) 0px 0px 3px;" transform="translate(0,16)"><tspan>smrt v italijanski vojski</tspan></text></g><g  style="cursor:pointer;" transform="translate(0,-999)"><text x="5"  style="font-size: 11px; font-weight: bold; color: rgb(0, 0, 0); fill: rgb(0, 0, 0); text-shadow: rgb(255, 255, 255) 0px 0px 6px, rgb(255, 255, 255) 0px 0px 3px;" transform="translate(0,16)"><tspan>eksplozija najdene letalske bombe</tspan></text></g></g><g class="highcharts-legend"  transform="translate(24,469)"><g ><g><g class="highcharts-legend-item"  transform="translate(8,3)"><text x="21" style="color:#333333;font-size:12px;font-weight:bold;cursor:pointer;fill:#333333;" text-anchor="start"  y="15"><tspan>povojni poboji</tspan></text><rect x="0" y="4" width="16" height="12"  fill="#7cb5ec"></rect></g><g class="highcharts-legend-item"  transform="translate(139.1500015258789,3)"><text x="21" y="15" style="color:#333333;font-size:12px;font-weight:bold;cursor:pointer;fill:#333333;" text-anchor="start" ><tspan>smrt v partizanski vojski</tspan></text><rect x="0" y="4" width="16" height="12"  fill="#434348"></rect></g><g class="highcharts-legend-item"  transform="translate(335.3166732788086,3)"><text x="21" y="15" style="color:#333333;font-size:12px;font-weight:bold;cursor:pointer;fill:#333333;" text-anchor="start" ><tspan>ubila NOV</tspan></text><rect x="0" y="4" width="16" height="12"  fill="#90ed7d"></rect></g><g class="highcharts-legend-item"  transform="translate(8,18)"><text x="21" y="15" style="color:#333333;font-size:12px;font-weight:bold;cursor:pointer;fill:#333333;" text-anchor="start" ><tspan>smrt v nemški vojski</tspan></text><rect x="0" y="4" width="16" height="12"  fill="#f7a35c"></rect></g><g class="highcharts-legend-item"  transform="translate(179.48333740234375,18)"><text x="21" y="15" style="color:#333333;font-size:12px;font-weight:bold;cursor:pointer;fill:#333333;" text-anchor="start" ><tspan>eksplozija mine</tspan></text><rect x="0" y="4" width="16" height="12"  fill="#8085e9"></rect></g><g class="highcharts-legend-item"  transform="translate(318.75000762939453,18)"><text x="21" y="15" style="color:#333333;font-size:12px;font-weight:bold;cursor:pointer;fill:#333333;" text-anchor="start" ><tspan>ustrelili Nemci</tspan></text><rect x="0" y="4" width="16" height="12"  fill="#f15c80"></rect></g><g class="highcharts-legend-item"  transform="translate(8,33)"><text x="21" y="15" style="color:#333333;font-size:12px;font-weight:bold;cursor:pointer;fill:#333333;" text-anchor="start" ><tspan>smrt v taborišču</tspan></text><rect x="0" y="4" width="16" height="12"  fill="#e4d354"></rect></g><g class="highcharts-legend-item"  transform="translate(151.61666870117188,33)"><text x="21" y="15" style="color:#333333;font-size:12px;font-weight:bold;cursor:pointer;fill:#333333;" text-anchor="start" ><tspan>smrt v internaciji ali na prisilnem delu</tspan></text><rect x="0" y="4" width="16" height="12"  fill="#2b908f"></rect></g><g class="highcharts-legend-item"  transform="translate(430.2166748046875,33)"><text x="21" y="15" style="color:#333333;font-size:12px;font-weight:bold;cursor:pointer;fill:#333333;" text-anchor="start" >bombardiranje</text><rect x="0" y="4" width="16" height="12"  fill="#f45b5b"></rect></g><g class="highcharts-legend-item"  transform="translate(8,48)"><text x="21" y="15" style="color:#333333;font-size:12px;font-weight:bold;cursor:pointer;fill:#333333;" text-anchor="start" ><tspan>kot talca ustrelili četniki</tspan></text><rect x="0" y="4" width="16" height="12"  fill="#91e8e1"></rect></g><g class="highcharts-legend-item"  transform="translate(200.23333740234375,48)"><text x="21" y="15" style="color:#333333;font-size:12px;font-weight:bold;cursor:pointer;fill:#333333;" text-anchor="start" ><tspan>smrt v domobranski vojski</tspan></text><rect x="0" y="4" width="16" height="12"  fill="#7cb5ec"></rect></g><g class="highcharts-legend-item"  transform="translate(408.40000915527344,48)"><text x="21" y="15" style="color:#333333;font-size:12px;font-weight:bold;cursor:pointer;fill:#333333;" text-anchor="start" >nejasno</text><rect x="0" y="4" width="16" height="12"  fill="#434348"></rect></g><g class="highcharts-legend-item"  transform="translate(8,63)"><text x="21" y="15" style="color:#333333;font-size:12px;font-weight:bold;cursor:pointer;fill:#333333;" text-anchor="start" ><tspan>ustrelili domobranci</tspan></text><rect x="0" y="4" width="16" height="12"  fill="#90ed7d"></rect></g><g class="highcharts-legend-item"  transform="translate(175,63)"><text x="21" y="15" style="color:#333333;font-size:12px;font-weight:bold;cursor:pointer;fill:#333333;" text-anchor="start" ><tspan>umrl kot jugoslovanski vojak</tspan></text><rect x="0" y="4" width="16" height="12"  fill="#f7a35c"></rect></g><g class="highcharts-legend-item"  transform="translate(397.1999969482422,63)"><text x="21" y="15" style="color:#333333;font-size:12px;font-weight:bold;cursor:pointer;fill:#333333;" text-anchor="start" ><tspan>ustrelili Italijani</tspan></text><rect x="0" y="4" width="16" height="12"  fill="#8085e9"></rect></g><g class="highcharts-legend-item"  transform="translate(8,78)"><text x="21" y="15" style="color:#333333;font-size:12px;font-weight:bold;cursor:pointer;fill:#333333;" text-anchor="start" ><tspan>eksplozija granate</tspan></text><rect x="0" y="4" width="16" height="12"  fill="#f15c80"></rect></g><g class="highcharts-legend-item"  transform="translate(164.03333282470703,78)"><text x="21" y="15" style="color:#333333;font-size:12px;font-weight:bold;cursor:pointer;fill:#333333;" text-anchor="start" ><tspan>smrt v italijanski vojski</tspan></text><rect x="0" y="4" width="16" height="12"  fill="#e4d354"></rect></g><g class="highcharts-legend-item"  transform="translate(8,93)"><text x="21" y="15" style="color:#333333;font-size:12px;font-weight:bold;cursor:pointer;fill:#333333;" text-anchor="start" ><tspan>eksplozija najdene letalske bombe</tspan></text><rect x="0" y="4" width="16" height="12"  fill="#2b908f"></rect></g></g></g></g><g class="highcharts-tooltip"  style="cursor:default;padding:0;white-space:nowrap;" transform="translate(0,-9999)"><path fill="none" d="M 3 0 L 13 0 C 16 0 16 0 16 3 L 16 13 C 16 16 16 16 13 16 L 3 16 C 0 16 0 16 0 13 L 0 3 C 0 0 0 0 3 0"  stroke="black" stroke-opacity="0.049999999999999996" stroke-width="5" transform="translate(1, 1)"></path><path fill="none" d="M 3 0 L 13 0 C 16 0 16 0 16 3 L 16 13 C 16 16 16 16 13 16 L 3 16 C 0 16 0 16 0 13 L 0 3 C 0 0 0 0 3 0"  stroke="black" stroke-opacity="0.09999999999999999" stroke-width="3" transform="translate(1, 1)"></path><path fill="none" d="M 3 0 L 13 0 C 16 0 16 0 16 3 L 16 13 C 16 16 16 16 13 16 L 3 16 C 0 16 0 16 0 13 L 0 3 C 0 0 0 0 3 0"  stroke="black" stroke-opacity="0.15" stroke-width="1" transform="translate(1, 1)"></path><path fill="rgb(249, 249, 249)" fill-opacity=" .85" d="M 3 0 L 13 0 C 16 0 16 0 16 3 L 16 13 C 16 16 16 16 13 16 L 3 16 C 0 16 0 16 0 13 L 0 3 C 0 0 0 0 3 0"></path><text x="8"  style="font-size:12px;color:#333333;fill:#333333;" transform="translate(0,20)"></text></g></svg>