<?xml version="1.0" standalone="no"?><!DOCTYPE svg PUBLIC "-//W3C//DTD SVG 1.1//EN" "http://www.w3.org/Graphics/SVG/1.1/DTD/svg11.dtd"><svg xmlns:xlink="http://www.w3.org/1999/xlink" version="1.1" style="font-family:'lucida grande', 'lucida sans unicode', arial, helvetica, sans-serif;font-size:12px;" xmlns="http://www.w3.org/2000/svg" width="600" height="600"><desc>Created with Highcharts 4.1.5</desc><defs><clipPath id="highcharts-9"><rect x="0" y="0" width="580" height="395"></rect></clipPath></defs><rect x="0" y="0" width="600" height="600" strokeWidth="0" fill="#FFFFFF" class=" highcharts-background"></rect><g class="highcharts-series-group" ><g class="highcharts-series" visibility="visible"  transform="translate(10,47) scale(1 1)"><path fill="#7cb5ec" d="M 349.9826877776859 113.0000017630179 A 85 85 0 0 1 430.1057601047319 226.42652279198322 L 350 198 A 0 0 0 0 0 350 198 Z" stroke="#FFFFFF" stroke-width="1" stroke-linejoin="round" transform="translate(0,0)"></path><path fill="#434348" d="M 430.07729353380097 226.50661432547676 A 85 85 0 0 1 313.62576247029506 274.8239210411224 L 350 198 A 0 0 0 0 0 350 198 Z" stroke="#FFFFFF" stroke-width="1" stroke-linejoin="round" transform="translate(0,0)"></path><path fill="#90ed7d" d="M 313.5489567491752 274.7875083976977 A 85 85 0 0 1 274.0096468365858 236.08498688590532 L 350 198 A 0 0 0 0 0 350 198 Z" stroke="#FFFFFF" stroke-width="1" stroke-linejoin="round" transform="translate(0,0)"></path><path fill="#f7a35c" d="M 273.9715998512208 236.00897750291512 A 85 85 0 0 1 265.06599136471164 194.65124244819674 L 350 198 A 0 0 0 0 0 350 198 Z" stroke="#FFFFFF" stroke-width="1" stroke-linejoin="round" transform="translate(0,0)"></path><path fill="#8085e9" d="M 265.06938258870605 194.56631012809578 A 85 85 0 0 1 273.183489009802 161.61011625062832 L 350 198 A 0 0 0 0 0 350 198 Z" stroke="#FFFFFF" stroke-width="1" stroke-linejoin="round" transform="translate(0,0)"></path><path fill="#f15c80" d="M 273.21991729573864 161.53331794738125 A 85 85 0 0 1 286.3441544920991 141.67120334434392 L 350 198 A 0 0 0 0 0 350 198 Z" stroke="#FFFFFF" stroke-width="1" stroke-linejoin="round" transform="translate(0,0)"></path><path fill="#e4d354" d="M 286.4005151072867 141.60757567384132 A 85 85 0 0 1 301.6280325156009 128.10613215962192 L 350 198 A 0 0 0 0 0 350 198 Z" stroke="#FFFFFF" stroke-width="1" stroke-linejoin="round" transform="translate(0,0)"></path><path fill="#2b908f" d="M 301.6979505577741 128.0577951471305 A 85 85 0 0 1 308.92182889179435 123.58505621580449 L 350 198 A 0 0 0 0 0 350 198 Z" stroke="#FFFFFF" stroke-width="1" stroke-linejoin="round" transform="translate(0,0)"></path><path fill="#f45b5b" d="M 308.9962643622599 123.54401525901142 A 85 85 0 0 1 316.6343075949866 119.82244202884034 L 350 198 A 0 0 0 0 0 350 198 Z" stroke="#FFFFFF" stroke-width="1" stroke-linejoin="round" transform="translate(0,0)"></path><path fill="#91e8e1" d="M 316.712501822773 119.78911543077199 A 85 85 0 0 1 322.9885564992368 117.40606772215992 L 350 198 A 0 0 0 0 0 350 198 Z" stroke="#FFFFFF" stroke-width="1" stroke-linejoin="round" transform="translate(0,0)"></path><path fill="#7cb5ec" d="M 323.06916392380293 117.37909658012381 A 85 85 0 0 1 329.5980914714083 115.48477638404549 L 350 198 A 0 0 0 0 0 350 198 Z" stroke="#FFFFFF" stroke-width="1" stroke-linejoin="round" transform="translate(0,0)"></path><path fill="#434348" d="M 329.68061688222514 115.4644157365256 A 85 85 0 0 1 334.58274729461095 114.40987905847861 L 350 198 A 0 0 0 0 0 350 198 Z" stroke="#FFFFFF" stroke-width="1" stroke-linejoin="round" transform="translate(0,0)"></path><path fill="#90ed7d" d="M 334.66634511024654 114.39450360339973 A 85 85 0 0 1 337.9377927333877 113.86021656875218 L 350 198 A 0 0 0 0 0 350 198 Z" stroke="#FFFFFF" stroke-width="1" stroke-linejoin="round" transform="translate(0,0)"></path><path fill="#f7a35c" d="M 338.0219385338988 113.84819643338413 A 85 85 0 0 1 341.3966943007133 113.43651419764781 L 350 198 A 0 0 0 0 0 350 198 Z" stroke="#FFFFFF" stroke-width="1" stroke-linejoin="round" transform="translate(0,0)"></path><path fill="#8085e9" d="M 341.48126207407427 113.42795317512179 A 85 85 0 0 1 344.7852135213727 113.16011549994704 L 350 198 A 0 0 0 0 0 350 198 Z" stroke="#FFFFFF" stroke-width="1" stroke-linejoin="round" transform="translate(0,0)"></path><path fill="#f15c80" d="M 344.87005599912584 113.15494313427625 A 85 85 0 0 1 346.48294101632104 113.0727941345924 L 350 198 A 0 0 0 0 0 350 198 Z" stroke="#FFFFFF" stroke-width="1" stroke-linejoin="round" transform="translate(0,0)"></path><path fill="#e4d354" d="M 346.5678699665613 113.0693195397943 A 85 85 0 0 1 348.18207528796944 113.01944251923626 L 350 198 A 0 0 0 0 0 350 198 Z" stroke="#FFFFFF" stroke-width="1" stroke-linejoin="round" transform="translate(0,0)"></path><path fill="#2b908f" d="M 348.2670567402491 113.01766708510242 A 85 85 0 0 1 349.8819367052639 113.00008199381345 L 350 198 A 0 0 0 0 0 350 198 Z" stroke="#FFFFFF" stroke-width="1" stroke-linejoin="round" transform="translate(0,0)"></path></g><g class="highcharts-markers" visibility="visible"  transform="translate(10,47) scale(1 1)"></g></g><text x="300" text-anchor="middle" class="highcharts-title"  style="color:#333333;font-size:18px;fill:#333333;width:536px;" y="24"><tspan>The structure of the World War II victims in Žiri Region</tspan></text><g class="highcharts-data-labels" visibility="visible"  transform="translate(10,47) scale(1 1)" opacity="1"><path fill="none" d="M 448.4805622601513 131.2229005065413 C 443.4805622601513 131.2229005065413 436.9427840159668 135.83348134086887 427.95333893021325 142.17302998806926 L 418.9638938444597 148.51257863526965" stroke="#7cb5ec" stroke-width="1" visibility="inherit"></path><path fill="none" d="M 398.50859472198533 303.74614623879796 C 393.50859472198533 303.74614623879796 390.44712726306466 296.3551099787077 386.23760950704866 286.1924351210835 L 382.02809175103266 276.02976026345937" stroke="#434348" stroke-width="1" visibility="inherit"></path><path fill="none" d="M 281.9480216140209 294 C 286.9480216140209 294 274.6052375757692 273.9184176846002 282.3046991334004 266.0623186702955 L 290.0041606910316 258.2062196559908" stroke="#90ed7d" stroke-width="1" visibility="inherit"></path><path fill="none" d="M 255.64056043390775 270.5 C 260.64056043390775 270.5 244.88321994831938 219.95727792093874 255.6382160283987 217.6485857982254 L 266.393212108478 215.3398936755121" stroke="#f7a35c" stroke-width="1" visibility="inherit"></path><path fill="none" d="M 240.69850675447873 247 C 245.69850675447873 247 245.60922553541235 171.89322392123134 256.28958552709895 174.52569622839448 L 266.96994551878555 177.15816853555762" stroke="#8085e9" stroke-width="1" visibility="inherit"></path><path fill="none" d="M 232.47768079529865 223.5 C 237.47768079529865 223.5 260.23459316093385 138.50265139977904 269.4114106864453 144.56779938671764 L 278.5882282119568 150.63294737365624" stroke="#f15c80" stroke-width="1" visibility="inherit"></path><path fill="none" d="M 229.52717712433082 200 C 234.52717712433082 200 278.5458755682349 117.40934994569224 285.84022480888365 125.64296817557435 L 293.1345740495324 133.87658640545646" stroke="#e4d354" stroke-width="1" visibility="inherit"></path><path fill="none" d="M 231.43364779917943 176.5 C 236.43364779917943 176.5 293.2256524697046 106.49341886413082 299.0108657672116 115.84923561641644 L 304.79607906471864 125.20505236870206" stroke="#2b908f" stroke-width="1" visibility="inherit"></path><path fill="none" d="M 238.458734447386 153 C 243.458734447386 153 302.65885554730846 101.29757182709947 307.4743003041272 111.18754107851916 L 312.28974506094596 121.07751032993885" stroke="#f45b5b" stroke-width="1" visibility="inherit"></path><path fill="none" d="M 251.75842356310739 129.5 C 256.7584235631074 129.5 311.5572770864485 97.45326203266069 315.4579308439164 107.73844070220025 L 319.35858460138434 118.02361937173981" stroke="#91e8e1" stroke-width="1" visibility="inherit"></path><path fill="none" d="M 274.8383175626658 106 C 279.8383175626658 106 319.73073136093944 94.72456205544322 322.7911234640204 105.2902612833883 L 325.8515155671014 115.8559605113334" stroke="#7cb5ec" stroke-width="1" visibility="inherit"></path><path fill="none" d="M 320.3636732625423 82.5 C 325.3636732625423 82.5 327.04272207906104 92.88321994831944 329.3514142017744 103.63821602839874 L 331.66010632448774 114.39321210847805" stroke="#434348" stroke-width="1" visibility="inherit"></path><g  style="cursor:pointer;" transform="translate(453,121)" visibility="inherit"><text x="5"  style="font-size: 11px; font-weight: bold; color: rgb(0, 0, 0); fill: rgb(0, 0, 0); text-shadow: rgb(255, 255, 255) 0px 0px 6px, rgb(255, 255, 255) 0px 0px 3px;" transform="translate(0,16)"><tspan>Post-War Massacres</tspan></text></g><g  style="cursor:pointer;" transform="translate(404,294)" visibility="inherit"><text x="5"  style="font-size: 11px; font-weight: bold; color: rgb(0, 0, 0); fill: rgb(0, 0, 0); text-shadow: rgb(255, 255, 255) 0px 0px 6px, rgb(255, 255, 255) 0px 0px 3px;" transform="translate(0,16)"><tspan>Died in the Partisans</tspan></text></g><g  style="cursor:pointer;" transform="translate(41,284)" visibility="inherit"><text x="5"  style="font-size: 11px; font-weight: bold; color: rgb(0, 0, 0); fill: rgb(0, 0, 0); text-shadow: rgb(255, 255, 255) 0px 0px 6px, rgb(255, 255, 255) 0px 0px 3px;" transform="translate(0,16)"><tspan>Killed by NLA (National Liberation Army)</tspan></text></g><g  style="cursor:pointer;" transform="translate(101,261)" visibility="inherit"><text x="5"  style="font-size: 11px; font-weight: bold; color: rgb(0, 0, 0); fill: rgb(0, 0, 0); text-shadow: rgb(255, 255, 255) 0px 0px 6px, rgb(255, 255, 255) 0px 0px 3px;" transform="translate(0,16)"><tspan>Died in the German Army</tspan></text></g><g  style="cursor:pointer;" transform="translate(144,237)" visibility="inherit"><text x="5"  style="font-size: 11px; font-weight: bold; color: rgb(0, 0, 0); fill: rgb(0, 0, 0); text-shadow: rgb(255, 255, 255) 0px 0px 6px, rgb(255, 255, 255) 0px 0px 3px;" transform="translate(0,16)"><tspan>Mine Explosion</tspan></text></g><g  style="cursor:pointer;" transform="translate(125,214)" visibility="inherit"><text x="5"  style="font-size: 11px; font-weight: bold; color: rgb(0, 0, 0); fill: rgb(0, 0, 0); text-shadow: rgb(255, 255, 255) 0px 0px 6px, rgb(255, 255, 255) 0px 0px 3px;" transform="translate(0,16)"><tspan>Shot by Germans</tspan></text></g><g  style="cursor:pointer;" transform="translate(120,190)" visibility="inherit"><text x="5"  style="font-size: 11px; font-weight: bold; color: rgb(0, 0, 0); fill: rgb(0, 0, 0); text-shadow: rgb(255, 255, 255) 0px 0px 6px, rgb(255, 255, 255) 0px 0px 3px;" transform="translate(0,16)"><tspan>Died in the Camp</tspan></text></g><g  style="cursor:pointer;" transform="translate(7,167)" visibility="inherit"><text x="5"  style="font-size: 11px; font-weight: bold; color: rgb(0, 0, 0); fill: rgb(0, 0, 0); text-shadow: rgb(255, 255, 255) 0px 0px 6px, rgb(255, 255, 255) 0px 0px 3px;" transform="translate(0,16)"><tspan>Died due to interment or forced labor</tspan></text></g><g  style="cursor:pointer;" transform="translate(148,143)" visibility="inherit"><text x="5"  style="font-size: 11px; font-weight: bold; color: rgb(0, 0, 0); fill: rgb(0, 0, 0); text-shadow: rgb(255, 255, 255) 0px 0px 6px, rgb(255, 255, 255) 0px 0px 3px;" transform="translate(0,16)"><tspan>Bombardment</tspan></text></g><g  style="cursor:pointer;" transform="translate(80,120)" visibility="inherit"><text x="5"  style="font-size: 11px; font-weight: bold; color: rgb(0, 0, 0); fill: rgb(0, 0, 0); text-shadow: rgb(255, 255, 255) 0px 0px 6px, rgb(255, 255, 255) 0px 0px 3px;" transform="translate(0,16)"><tspan>Shot as hostage by Chetniks</tspan></text></g><g  style="cursor:pointer;" transform="translate(127,96)" visibility="inherit"><text x="5"  style="font-size: 11px; font-weight: bold; color: rgb(0, 0, 0); fill: rgb(0, 0, 0); text-shadow: rgb(255, 255, 255) 0px 0px 6px, rgb(255, 255, 255) 0px 0px 3px;" transform="translate(0,16)"><tspan>Died in the Home Guard</tspan></text></g><g  style="cursor:pointer;" transform="translate(267,73)" visibility="inherit"><text x="5"  style="font-size: 11px; font-weight: bold; color: rgb(0, 0, 0); fill: rgb(0, 0, 0); text-shadow: rgb(255, 255, 255) 0px 0px 6px, rgb(255, 255, 255) 0px 0px 3px;" transform="translate(0,16)"><tspan>Unclear</tspan></text></g><g  style="cursor:pointer;" transform="translate(0,-999)"><text x="5"  style="font-size: 11px; font-weight: bold; color: rgb(0, 0, 0); fill: rgb(0, 0, 0); text-shadow: rgb(255, 255, 255) 0px 0px 6px, rgb(255, 255, 255) 0px 0px 3px;" transform="translate(0,16)"><tspan>Shot by Home Guard</tspan></text></g><g  style="cursor:pointer;" transform="translate(0,-999)"><text x="5"  style="font-size: 11px; font-weight: bold; color: rgb(0, 0, 0); fill: rgb(0, 0, 0); text-shadow: rgb(255, 255, 255) 0px 0px 6px, rgb(255, 255, 255) 0px 0px 3px;" transform="translate(0,16)"><tspan>Died as a Yugoslav soldier</tspan></text></g><g  style="cursor:pointer;" transform="translate(0,-999)"><text x="5"  style="font-size: 11px; font-weight: bold; color: rgb(0, 0, 0); fill: rgb(0, 0, 0); text-shadow: rgb(255, 255, 255) 0px 0px 6px, rgb(255, 255, 255) 0px 0px 3px;" transform="translate(0,16)"><tspan>Shot by Italians</tspan></text></g><g  style="cursor:pointer;" transform="translate(0,-999)"><text x="5"  style="font-size: 11px; font-weight: bold; color: rgb(0, 0, 0); fill: rgb(0, 0, 0); text-shadow: rgb(255, 255, 255) 0px 0px 6px, rgb(255, 255, 255) 0px 0px 3px;" transform="translate(0,16)"><tspan>Granade Explosion</tspan></text></g><g  style="cursor:pointer;" transform="translate(0,-999)"><text x="5"  style="font-size: 11px; font-weight: bold; color: rgb(0, 0, 0); fill: rgb(0, 0, 0); text-shadow: rgb(255, 255, 255) 0px 0px 6px, rgb(255, 255, 255) 0px 0px 3px;" transform="translate(0,16)"><tspan>Died in the Italian Army</tspan></text></g><g  style="cursor:pointer;" transform="translate(0,-999)"><text x="5"  style="font-size: 11px; font-weight: bold; color: rgb(0, 0, 0); fill: rgb(0, 0, 0); text-shadow: rgb(255, 255, 255) 0px 0px 6px, rgb(255, 255, 255) 0px 0px 3px;" transform="translate(0,16)"><tspan>Explosion of a found air bomb</tspan></text></g></g><g class="highcharts-legend"  transform="translate(46,454)"><g ><g><g class="highcharts-legend-item"  transform="translate(8,3)"><text x="21" style="color:#333333;font-size:12px;font-weight:bold;cursor:pointer;fill:#333333;" text-anchor="start"  y="15"><tspan>Post-War Massacres</tspan></text><rect x="0" y="4" width="16" height="12"  fill="#7cb5ec"></rect></g><g class="highcharts-legend-item"  transform="translate(175.86666870117188,3)"><text x="21" y="15" style="color:#333333;font-size:12px;font-weight:bold;cursor:pointer;fill:#333333;" text-anchor="start" ><tspan>Died in the Partisans</tspan></text><rect x="0" y="4" width="16" height="12"  fill="#434348"></rect></g><g class="highcharts-legend-item"  transform="translate(8,18)"><text x="21" y="15" style="color:#333333;font-size:12px;font-weight:bold;cursor:pointer;fill:#333333;" text-anchor="start" ><tspan>Killed by NLA (National Liberation Army)</tspan></text><rect x="0" y="4" width="16" height="12"  fill="#90ed7d"></rect></g><g class="highcharts-legend-item"  transform="translate(300.96665954589844,18)"><text x="21" y="15" style="color:#333333;font-size:12px;font-weight:bold;cursor:pointer;fill:#333333;" text-anchor="start" ><tspan>Died in the German Army</tspan></text><rect x="0" y="4" width="16" height="12"  fill="#f7a35c"></rect></g><g class="highcharts-legend-item"  transform="translate(8,33)"><text x="21" y="15" style="color:#333333;font-size:12px;font-weight:bold;cursor:pointer;fill:#333333;" text-anchor="start" ><tspan>Mine Explosion</tspan></text><rect x="0" y="4" width="16" height="12"  fill="#8085e9"></rect></g><g class="highcharts-legend-item"  transform="translate(143.6999969482422,33)"><text x="21" y="15" style="color:#333333;font-size:12px;font-weight:bold;cursor:pointer;fill:#333333;" text-anchor="start" ><tspan>Shot by Germans</tspan></text><rect x="0" y="4" width="16" height="12"  fill="#f15c80"></rect></g><g class="highcharts-legend-item"  transform="translate(290.5999984741211,33)"><text x="21" y="15" style="color:#333333;font-size:12px;font-weight:bold;cursor:pointer;fill:#333333;" text-anchor="start" ><tspan>Died in the Camp</tspan></text><rect x="0" y="4" width="16" height="12"  fill="#e4d354"></rect></g><g class="highcharts-legend-item"  transform="translate(8,48)"><text x="21" y="15" style="color:#333333;font-size:12px;font-weight:bold;cursor:pointer;fill:#333333;" text-anchor="start" ><tspan>Died due to interment or forced labor</tspan></text><rect x="0" y="4" width="16" height="12"  fill="#2b908f"></rect></g><g class="highcharts-legend-item"  transform="translate(282.6333312988281,48)"><text x="21" y="15" style="color:#333333;font-size:12px;font-weight:bold;cursor:pointer;fill:#333333;" text-anchor="start" >Bombardment</text><rect x="0" y="4" width="16" height="12"  fill="#f45b5b"></rect></g><g class="highcharts-legend-item"  transform="translate(8,63)"><text x="21" y="15" style="color:#333333;font-size:12px;font-weight:bold;cursor:pointer;fill:#333333;" text-anchor="start" ><tspan>Shot as hostage by Chetniks</tspan></text><rect x="0" y="4" width="16" height="12"  fill="#91e8e1"></rect></g><g class="highcharts-legend-item"  transform="translate(225.5500030517578,63)"><text x="21" y="15" style="color:#333333;font-size:12px;font-weight:bold;cursor:pointer;fill:#333333;" text-anchor="start" ><tspan>Died in the Home Guard</tspan></text><rect x="0" y="4" width="16" height="12"  fill="#7cb5ec"></rect></g><g class="highcharts-legend-item"  transform="translate(416.3000030517578,63)"><text x="21" y="15" style="color:#333333;font-size:12px;font-weight:bold;cursor:pointer;fill:#333333;" text-anchor="start" >Unclear</text><rect x="0" y="4" width="16" height="12"  fill="#434348"></rect></g><g class="highcharts-legend-item"  transform="translate(8,78)"><text x="21" y="15" style="color:#333333;font-size:12px;font-weight:bold;cursor:pointer;fill:#333333;" text-anchor="start" ><tspan>Shot by Home Guard</tspan></text><rect x="0" y="4" width="16" height="12"  fill="#90ed7d"></rect></g><g class="highcharts-legend-item"  transform="translate(177.0500030517578,78)"><text x="21" y="15" style="color:#333333;font-size:12px;font-weight:bold;cursor:pointer;fill:#333333;" text-anchor="start" ><tspan>Died as a Yugoslav soldier</tspan></text><rect x="0" y="4" width="16" height="12"  fill="#f7a35c"></rect></g><g class="highcharts-legend-item"  transform="translate(383.3666687011719,78)"><text x="21" y="15" style="color:#333333;font-size:12px;font-weight:bold;cursor:pointer;fill:#333333;" text-anchor="start" ><tspan>Shot by Italians</tspan></text><rect x="0" y="4" width="16" height="12"  fill="#8085e9"></rect></g><g class="highcharts-legend-item"  transform="translate(8,93)"><text x="21" y="15" style="color:#333333;font-size:12px;font-weight:bold;cursor:pointer;fill:#333333;" text-anchor="start" ><tspan>Granade Explosion</tspan></text><rect x="0" y="4" width="16" height="12"  fill="#f15c80"></rect></g><g class="highcharts-legend-item"  transform="translate(165.3499984741211,93)"><text x="21" y="15" style="color:#333333;font-size:12px;font-weight:bold;cursor:pointer;fill:#333333;" text-anchor="start" ><tspan>Died in the Italian Army</tspan></text><rect x="0" y="4" width="16" height="12"  fill="#e4d354"></rect></g><g class="highcharts-legend-item"  transform="translate(8,108)"><text x="21" y="15" style="color:#333333;font-size:12px;font-weight:bold;cursor:pointer;fill:#333333;" text-anchor="start" ><tspan>Explosion of a found air bomb</tspan></text><rect x="0" y="4" width="16" height="12"  fill="#2b908f"></rect></g></g></g></g><g class="highcharts-tooltip"  style="cursor:default;padding:0;white-space:nowrap;" transform="translate(0,-9999)"><path fill="none" d="M 3 0 L 13 0 C 16 0 16 0 16 3 L 16 13 C 16 16 16 16 13 16 L 3 16 C 0 16 0 16 0 13 L 0 3 C 0 0 0 0 3 0"  stroke="black" stroke-opacity="0.049999999999999996" stroke-width="5" transform="translate(1, 1)"></path><path fill="none" d="M 3 0 L 13 0 C 16 0 16 0 16 3 L 16 13 C 16 16 16 16 13 16 L 3 16 C 0 16 0 16 0 13 L 0 3 C 0 0 0 0 3 0"  stroke="black" stroke-opacity="0.09999999999999999" stroke-width="3" transform="translate(1, 1)"></path><path fill="none" d="M 3 0 L 13 0 C 16 0 16 0 16 3 L 16 13 C 16 16 16 16 13 16 L 3 16 C 0 16 0 16 0 13 L 0 3 C 0 0 0 0 3 0"  stroke="black" stroke-opacity="0.15" stroke-width="1" transform="translate(1, 1)"></path><path fill="rgb(249, 249, 249)" fill-opacity=" .85" d="M 3 0 L 13 0 C 16 0 16 0 16 3 L 16 13 C 16 16 16 16 13 16 L 3 16 C 0 16 0 16 0 13 L 0 3 C 0 0 0 0 3 0"></path><text x="8"  style="font-size:12px;color:#333333;fill:#333333;" transform="translate(0,20)"></text></g></svg>